<?xml version="1.0" encoding="UTF-8" standalone="no"?>
<svg
   xmlns:dc="http://purl.org/dc/elements/1.1/"
   xmlns:cc="http://creativecommons.org/ns#"
   xmlns:rdf="http://www.w3.org/1999/02/22-rdf-syntax-ns#"
   xmlns:svg="http://www.w3.org/2000/svg"
   xmlns="http://www.w3.org/2000/svg"
   version="1.1"
   viewBox="0 0 500 500"
   height="500"
   width="500">
  <g transform="matrix(1.4935891,0,0,1.4935891,-945.86539,-146.74324)">
    <path
       style="fill:#fff"
       d="m 786.58354,202.20902 c 25.65,-34.58 51.17,-69.26 76.64,-103.959997 24.59,24.759997 49.17,49.539997 73.81,74.249997 10.05,9.84 19.5,20.27 29.59,30.09 -30.74,-0.31 -61.49,-0.06 -92.23,-0.13 20.48,31.43 40.83,62.94 61.34,94.34 9.85,15.7 20.52,30.88 29.96,46.83 -20.9,29.96 -42.47,59.45 -63.51,89.31 -47.03,0.11 -94.07,0.08 -141.11,0.02 -37.38,-44.81 -74.79,-89.6 -112.03,-134.52 -5.17,-6.48 -10.91,-12.5 -15.76,-19.23 32.86,5.43 65.79,10.34 98.72,15.24 -12.04,-26.46 -23.52,-53.19 -35.43,-79.71 37.47,14.29 75.06,28.29 112.58,42.49 -7.43,-18.38 -14.96,-36.72 -22.57,-55.02 m 79.44,-64.7 c -8.33,11.33 -16.58,22.71 -25.01,33.96 -1.14,1.7 -2.6,3.23 -3.29,5.17 22.25,0.39 44.55,-0.12 66.81,0.26 -3.04,-4.19 -7.13,-7.45 -10.65,-11.21 -9.16,-9.51 -18.65,-18.71 -27.86,-28.18 m -51.74,65.18 c 4.15,9.13 7.73,18.51 11.59,27.77 23.17,56.27 46.03,112.67 68.99,169.02 13.39,-18.83 26.76,-37.7 40.07,-56.59 -30.41,-46.72 -60.6,-93.59 -90.89,-140.4 -9.92,0.07 -19.86,-0.32 -29.76,0.2 m -69.07,57.83 c 5.57,12.97 11.36,25.85 17.16,38.71 22.69,3.64 45.41,7.02 68.11,10.54 -2.81,-6.58 -5.39,-13.25 -8.01,-19.9 -25.69,-9.96 -51.52,-19.54 -77.26,-29.35 m -49.14,54.45 c 1.8,2.69 3.96,5.11 6.13,7.52 23.67,28.31 47.55,56.45 71.18,84.81 3.01,0.6 6.14,0.11 9.2,0.24 29.15,-0.06 58.3,0.14 87.45,-0.09 -9.54,-23.44 -18.96,-46.92 -28.5,-70.35 -12.05,-1.49 -24.02,-3.62 -36.03,-5.37 -36.48,-5.56 -72.97,-11.1 -109.43,-16.76 z" />
  </g>
</svg>
