<svg version="1" xmlns="http://www.w3.org/2000/svg" width="933.333" height="933.333" viewBox="0 0 700.000000 700.000000"><path d="M453 37.6c-27.8 38-88.2 120.1-89.7 121.9-5.4 6.7-42.3 57.5-42.3 58.4 0 .6 1.1 3.4 2.3 6.3 1.3 2.9 4.2 9.8 6.5 15.3 27.9 67.9 37.2 90.9 37.2 91.8 0 .6-1.7.2-5.5-1.3-3-1.2-15.7-5.9-40-15-12.1-4.5-22.9-8.5-24-9-1.1-.6-14.1-5.5-29-11.1-48.3-18-66.8-25-77-28.9-25.8-10.1-57.9-22-58.2-21.6-.2.2 1.4 4.4 3.5 9.2 2.2 4.9 8.6 19.2 14.1 31.9 5.6 12.6 10.6 23.9 11.1 25 2.3 4.9 39.5 88.6 41.6 93.5 1.2 3 2.1 5.6 2 5.8-.2.1-9.3-1.1-20.2-2.8-22.3-3.4-21.7-3.3-36.9-5.5-6-.9-11.7-1.8-12.5-2-.8-.2-3.7-.6-6.5-.9-2.7-.3-6.1-.8-7.5-1-1.4-.3-4.3-.7-6.5-1.1-5-.7-6.9-1-22.5-3.4-6.9-1.1-14.3-2.2-16.5-2.6-2.2-.3-6.7-1-10-1.5s-7.8-1.2-10-1.5c-5.9-.9-21.7-3.4-24-3.9-4.4-.8-9.2-1.6-13-2.2-2.2-.3-7.3-1.1-11.2-1.8-4-.7-7.3-.9-7.3-.5 0 1.1 4.9 7.1 49 60.1 22.7 27.1 42.6 51.1 44.5 53.3 9.4 11.5 140 168.4 141.9 170.5 1.2 1.4 8 9.5 15.1 18s13.6 16.3 14.5 17.2c1.5 1.7 10.1 1.8 149 1.5l147.4-.2 6.8-9.5c3.7-5.2 8.4-11.8 10.3-14.5 2-2.8 7.5-10.5 12.3-17.2 4.8-6.7 9.3-13 10-14 .7-1 11.4-16 23.8-33.3 12.4-17.3 33.2-46.5 46.1-64.8l23.5-33.3-12.4-19.5c-6.7-10.7-12.8-20.3-13.3-21.2-.6-.9-6.2-9.6-12.5-19.2-11.5-17.3-31.6-48.4-33.5-51.7-.5-.9-1.4-2.2-1.8-2.7-.4-.6-4.9-7.4-9.9-15.1-5-7.7-12.9-20-17.7-27.2-24.8-38.2-29.4-45.2-38.1-58.7-9.7-15-28.3-43.4-35.2-53.9-2.1-3.2-3.8-6-3.8-6.2 0-.2-2.9-4.6-6.5-9.9l-6.4-9.6h121.7c38.6 0 70.2-.1 70.2-.4 0-.6-36.1-37.4-89.3-91C563.5 83.1 480.6-.1 480.5.1c0 0-12.4 16.9-27.5 37.5zm74.4 85.5c21.8 22.1 39.4 40.4 39.1 40.7-.4.4-74.4.5-129.7.2-5 0-8.8-.4-8.8-1 0-1.3 2.3-4.6 26-36.7 11.3-15.3 23-31.3 26-35.5 3-4.2 6-7.7 6.6-7.7.6-.1 18.9 18 40.8 40zm-77.3 109.4c5.2 8 11.7 18 14.4 22.3 2.8 4.2 10.4 16 17 26.2 6.5 10.2 16 24.8 21 32.5 5 7.7 24.6 38 43.5 67.3 19 29.3 37.5 57.8 41.2 63.5 3.7 5.6 7.3 11.2 8 12.4.7 1.2 5.5 8.7 10.6 16.5 5.2 7.9 12.8 19.7 17.1 26.3l7.8 12-5.6 8c-3 4.4-7 10-8.8 12.5-5.7 7.9-8.5 11.9-28.4 40-32.5 46.1-40 56.5-40.7 56.7-.4.2-1.9-2.8-3.4-6.5-8.5-21.1-19.1-47.1-20.3-49.9-.8-1.7-1.5-3.4-1.5-3.7 0-.3-.9-2.5-1.9-4.9-1.1-2.3-4.3-10.1-7.1-17.2-2.9-7.2-5.8-14.4-6.5-16-.7-1.7-2.2-5.5-3.4-8.5-1.2-3-2.6-6.4-3.1-7.5-1-2-19.6-47.8-23-56.5-2.3-5.9-12.8-31.5-14.7-36-1.6-3.8-2-4.6-5.3-13-1.1-3-2.5-6.4-3-7.5-.5-1.1-4.6-11-9-22-4.5-11-8.5-20.9-9-22-.5-1.1-2.6-6.1-4.6-11-2-5-4.2-10.4-4.9-12-.7-1.7-2.2-5.5-3.4-8.5-2.3-5.8-3-7.4-5.4-13-.8-1.9-4.4-10.7-8-19.5-10.9-27-17.8-43.8-19.4-47.5-.8-1.9-1.9-4.4-2.3-5.5-.5-1.1-2.7-6.3-4.9-11.5-2.3-5.2-4.1-9.8-4.1-10.2 0-.4 13.9-.7 30.8-.8h30.9l9.4 14.5zM261 349.5c8.7 3.1 78 29.3 80.5 30.5 1.1.5 5.8 2.3 10.5 4 4.7 1.7 9.4 3.5 10.5 4 1.1.5 9 3.5 17.5 6.7l15.4 5.9 8.2 20.4c4.6 11.3 8.1 20.6 7.9 20.8-.2.2-3.4-.1-7.2-.7-3.7-.7-8.4-1.4-10.3-1.6-3.6-.4-10.1-1.4-13.5-2.1-2.2-.5-6.8-1.1-13-1.9-2.2-.3-4.7-.7-5.5-1-.8-.2-3.5-.7-6-1-5.4-.7-11.8-1.6-14.5-2.1-1.1-.2-4-.7-6.5-1-2.5-.3-5.2-.7-6-.9-1.3-.4-3.5-.7-12.7-2-4.5-.6-10.4-1.5-16.6-2.6-3.2-.6-7.4-1.2-9.5-1.5-2-.2-4.4-.6-5.2-.9-1.4-.4-11-1.7-13.6-1.8-.7 0-4.5-7.3-8.4-16.1-4-8.9-8.5-18.8-10-22.1-1.5-3.3-4.2-9.4-6-13.5-1.8-4.1-4-9.3-5-11.5-1-2.2-2.5-5.7-3.4-7.8-.9-2-2.3-5.2-3.1-7.1l-1.4-3.4 10.2 4c5.6 2.2 13.1 5 16.7 6.3zM139.5 454.4c8.3 1.2 11.8 1.8 13.9 2.2 1.1.2 6.8 1.1 12.6 1.9 5.8.8 11.4 1.6 12.5 1.9 2.6.5 8.8 1.4 14.5 2.1 2.5.3 5.2.8 6 1 1.4.4 3 .6 13 2 2.5.3 5.9.9 7.5 1.1 1.7.3 3.9.7 5 .9 1.1.2 3.8.6 6 .9 2.2.4 5.6.9 7.5 1.2 1.9.2 7.6 1.1 12.5 1.9 5 .7 11 1.7 13.5 2 2.5.3 9.9 1.4 16.5 2.5 6.6 1 15.5 2.4 19.8 3 4.3.6 8.8 1.3 10 1.5 1.2.2 4 .6 6.2 1 2.2.3 6.7 1 10 1.5s7.8 1.2 10 1.5c2.2.3 6.5 1 9.5 1.5 3 .6 6.9 1.2 8.5 1.4 3.8.5 21.5 3.2 37 5.6 6.6 1 13.7 2.1 15.8 2.4 2 .3 5.2.8 7 1.1 1.7.3 4.6.7 6.2.9 15.3 1.8 14.5 1.5 16.5 6 1 2.2 3.6 8.6 5.8 14.1 3.8 9.4 8.2 20.4 23.6 58.2 8.5 21 27.7 68.5 28.3 69.9.6 1.6-199.6 1.7-201.7.1-.8-.7-3.5-3.7-6-6.7s-4.9-6-5.5-6.6c-.5-.6-1.9-2.2-3-3.5-13.7-16.4-18-21.5-18.5-21.9-.3-.3-3.5-4.1-7-8.5-3.6-4.4-7-8.6-7.7-9.3-.7-.7-2.9-3.4-5-5.9-2.1-2.6-4.5-5.4-5.3-6.3-.9-.9-2.9-3.4-4.5-5.5-1.7-2.2-3.7-4.7-4.6-5.5-.9-.8-8.8-10.1-17.4-20.5-8.7-10.5-16.3-19.5-16.9-20-.6-.6-2.3-2.6-3.8-4.5s-3.7-4.7-5-6.2c-1.3-1.4-3.7-4.3-5.5-6.5-1.7-2.1-4.1-4.9-5.3-6.3-3-3.4-8.1-9.5-18.5-22-4.9-5.8-11.2-13.2-14-16.5-2.9-3.3-5.8-7.1-6.4-8.3-1.1-2.1-1.1-2.3.6-1.9 1 .3 3.6.8 5.8 1.1z"/></svg>